<svg width="420" height="700" viewBox="0 0 420 700" fill="none" xmlns="http://www.w3.org/2000/svg">
  <rect width="420" height="700" fill="#f5f5f5"/>
  <rect x="20" y="40" width="380" height="540" rx="16" fill="#fff" stroke="#e0e0e0" stroke-width="1"/>
  <text x="210" y="80" text-anchor="middle" font-size="28" font-family="Segoe UI, Arial, sans-serif" font-weight="bold" fill="#1E88E5">Create Advertisement</text>
  <text x="40" y="120" font-size="16" font-family="Segoe UI, Arial, sans-serif" fill="#757575">Ad Type</text>
  <rect x="40" y="130" width="340" height="36" rx="8" fill="#fafbfc" stroke="#e0e0e0"/>
  <text x="60" y="155" font-size="15" font-family="Segoe UI, Arial, sans-serif" fill="#757575">Buy / Sell</text>
  <text x="40" y="180" font-size="16" font-family="Segoe UI, Arial, sans-serif" fill="#757575">Cryptocurrency</text>
  <rect x="40" y="190" width="340" height="36" rx="8" fill="#fafbfc" stroke="#e0e0e0"/>
  <text x="60" y="215" font-size="15" font-family="Segoe UI, Arial, sans-serif" fill="#757575">USDT / BTC / ETH</text>
  <text x="40" y="240" font-size="16" font-family="Segoe UI, Arial, sans-serif" fill="#757575">Price</text>
  <rect x="40" y="250" width="160" height="36" rx="8" fill="#fafbfc" stroke="#e0e0e0"/>
  <text x="60" y="275" font-size="15" font-family="Segoe UI, Arial, sans-serif" fill="#757575">e.g. 1.02</text>
  <text x="220" y="240" font-size="16" font-family="Segoe UI, Arial, sans-serif" fill="#757575">Currency</text>
  <rect x="220" y="250" width="160" height="36" rx="8" fill="#fafbfc" stroke="#e0e0e0"/>
  <text x="240" y="275" font-size="15" font-family="Segoe UI, Arial, sans-serif" fill="#757575">USDT</text>
  <text x="40" y="300" font-size="16" font-family="Segoe UI, Arial, sans-serif" fill="#757575">Min Limit</text>
  <rect x="40" y="310" width="160" height="36" rx="8" fill="#fafbfc" stroke="#e0e0e0"/>
  <text x="60" y="335" font-size="15" font-family="Segoe UI, Arial, sans-serif" fill="#757575">e.g. 100</text>
  <text x="220" y="300" font-size="16" font-family="Segoe UI, Arial, sans-serif" fill="#757575">Max Limit</text>
  <rect x="220" y="310" width="160" height="36" rx="8" fill="#fafbfc" stroke="#e0e0e0"/>
  <text x="240" y="335" font-size="15" font-family="Segoe UI, Arial, sans-serif" fill="#757575">e.g. 5000</text>
  <text x="40" y="360" font-size="16" font-family="Segoe UI, Arial, sans-serif" fill="#757575">Payment Methods</text>
  <rect x="40" y="370" width="340" height="36" rx="8" fill="#fafbfc" stroke="#e0e0e0"/>
  <text x="60" y="395" font-size="15" font-family="Segoe UI, Arial, sans-serif" fill="#757575">e.g. Bank Transfer, PayPal</text>
  <rect x="40" y="440" width="340" height="48" rx="8" fill="#1E88E5"/>
  <text x="210" y="470" text-anchor="middle" font-size="18" font-family="Segoe UI, Arial, sans-serif" font-weight="600" fill="#fff">Create Ad</text>
</svg> 