<svg width="420" height="700" viewBox="0 0 420 700" fill="none" xmlns="http://www.w3.org/2000/svg">
  <rect width="420" height="700" fill="#f5f5f5"/>
  <rect x="20" y="20" width="380" height="40" rx="8" fill="#fafbfc" stroke="#e0e0e0"/>
  <text x="30" y="47" font-size="16" font-family="Segoe UI, Arial, sans-serif" fill="#757575">Search trades...</text>
  <rect x="20" y="70" width="70" height="32" rx="16" fill="#1E88E5"/>
  <text x="55" y="92" text-anchor="middle" font-size="16" font-family="Segoe UI, Arial, sans-serif" fill="#fff">All</text>
  <rect x="100" y="70" width="70" height="32" rx="16" fill="#e0e0e0"/>
  <text x="135" y="92" text-anchor="middle" font-size="16" font-family="Segoe UI, Arial, sans-serif" fill="#212121">Buy</text>
  <rect x="180" y="70" width="70" height="32" rx="16" fill="#e0e0e0"/>
  <text x="215" y="92" text-anchor="middle" font-size="16" font-family="Segoe UI, Arial, sans-serif" fill="#212121">Sell</text>
  <rect x="20" y="120" width="380" height="120" rx="12" fill="#fff" stroke="#e0e0e0"/>
  <circle cx="50" cy="150" r="20" fill="#e0e0e0"/>
  <text x="50" y="155" text-anchor="middle" font-size="16" font-family="Segoe UI, Arial, sans-serif" font-weight="bold" fill="#1E88E5">CT</text>
  <text x="80" y="145" font-size="16" font-family="Segoe UI, Arial, sans-serif" font-weight="600" fill="#212121">CryptoTrader</text>
  <rect x="320" y="135" width="60" height="28" rx="12" fill="#F44336"/>
  <text x="350" y="155" text-anchor="middle" font-size="14" font-family="Segoe UI, Arial, sans-serif" font-weight="600" fill="#fff">Sell</text>
  <text x="80" y="170" font-size="14" font-family="Segoe UI, Arial, sans-serif" fill="#757575">Price: <tspan fill="#212121" font-weight="600">1.02 USDT</tspan></text>
  <text x="200" y="170" font-size="14" font-family="Segoe UI, Arial, sans-serif" fill="#757575">Limits: <tspan fill="#212121" font-weight="600">100 - 5000</tspan></text>
  <rect x="80" y="185" width="90" height="22" rx="8" fill="#e0e0e0"/>
  <text x="125" y="200" text-anchor="middle" font-size="13" font-family="Segoe UI, Arial, sans-serif" fill="#1E88E5">Bank Transfer</text>
  <rect x="180" y="185" width="70" height="22" rx="8" fill="#e0e0e0"/>
  <text x="215" y="200" text-anchor="middle" font-size="13" font-family="Segoe UI, Arial, sans-serif" fill="#1E88E5">PayPal</text>
  <rect x="300" y="185" width="80" height="28" rx="8" fill="#1E88E5"/>
  <text x="340" y="205" text-anchor="middle" font-size="15" font-family="Segoe UI, Arial, sans-serif" fill="#fff">Trade Now</text>
  <rect x="20" y="260" width="380" height="120" rx="12" fill="#fff" stroke="#e0e0e0"/>
  <circle cx="50" cy="290" r="20" fill="#e0e0e0"/>
  <text x="50" y="295" text-anchor="middle" font-size="16" font-family="Segoe UI, Arial, sans-serif" font-weight="bold" fill="#1E88E5">BM</text>
  <text x="80" y="285" font-size="16" font-family="Segoe UI, Arial, sans-serif" font-weight="600" fill="#212121">BitMaster</text>
  <rect x="320" y="275" width="60" height="28" rx="12" fill="#4CAF50"/>
  <text x="350" y="295" text-anchor="middle" font-size="14" font-family="Segoe UI, Arial, sans-serif" font-weight="600" fill="#fff">Buy</text>
  <text x="80" y="310" font-size="14" font-family="Segoe UI, Arial, sans-serif" fill="#757575">Price: <tspan fill="#212121" font-weight="600">0.98 USDT</tspan></text>
  <text x="200" y="310" font-size="14" font-family="Segoe UI, Arial, sans-serif" fill="#757575">Limits: <tspan fill="#212121" font-weight="600">50 - 2000</tspan></text>
  <rect x="80" y="325" width="120" height="22" rx="8" fill="#e0e0e0"/>
  <text x="140" y="340" text-anchor="middle" font-size="13" font-family="Segoe UI, Arial, sans-serif" fill="#1E88E5">Interac e-Transfer</text>
  <rect x="300" y="325" width="80" height="28" rx="8" fill="#1E88E5"/>
  <text x="340" y="345" text-anchor="middle" font-size="15" font-family="Segoe UI, Arial, sans-serif" fill="#fff">Trade Now</text>
</svg> 