<svg width="420" height="600" viewBox="0 0 420 600" fill="none" xmlns="http://www.w3.org/2000/svg">
  <rect width="420" height="600" fill="#f5f5f5"/>
  <text x="210" y="60" text-anchor="middle" font-size="28" font-family="Segoe UI, Arial, sans-serif" font-weight="bold" fill="#1E88E5">Transaction History</text>
  <rect x="20" y="90" width="380" height="60" rx="10" fill="#fff"/>
  <text x="40" y="120" font-size="16" font-family="Segoe UI, Arial, sans-serif" fill="#4CAF50" font-weight="bold">Deposit</text>
  <text x="120" y="120" font-size="16" font-family="Segoe UI, Arial, sans-serif" fill="#212121" font-weight="bold">+ $500.00</text>
  <text x="220" y="120" font-size="14" font-family="Segoe UI, Arial, sans-serif" fill="#757575">2024-07-20</text>
  <rect x="300" y="100" width="90" height="28" rx="8" fill="#4CAF50"/>
  <text x="345" y="120" text-anchor="middle" font-size="14" font-family="Segoe UI, Arial, sans-serif" fill="#fff">Completed</text>
  <rect x="20" y="170" width="380" height="60" rx="10" fill="#fff"/>
  <text x="40" y="200" font-size="16" font-family="Segoe UI, Arial, sans-serif" fill="#F44336" font-weight="bold">Withdraw</text>
  <text x="120" y="200" font-size="16" font-family="Segoe UI, Arial, sans-serif" fill="#212121" font-weight="bold">- $100.00</text>
  <text x="220" y="200" font-size="14" font-family="Segoe UI, Arial, sans-serif" fill="#757575">2024-07-18</text>
  <rect x="300" y="180" width="90" height="28" rx="8" fill="#FFC107"/>
  <text x="345" y="200" text-anchor="middle" font-size="14" font-family="Segoe UI, Arial, sans-serif" fill="#fff">Pending</text>
  <rect x="20" y="250" width="380" height="60" rx="10" fill="#fff"/>
  <text x="40" y="280" font-size="16" font-family="Segoe UI, Arial, sans-serif" fill="#4CAF50" font-weight="bold">Deposit</text>
  <text x="120" y="280" font-size="16" font-family="Segoe UI, Arial, sans-serif" fill="#212121" font-weight="bold">+ $200.00</text>
  <text x="220" y="280" font-size="14" font-family="Segoe UI, Arial, sans-serif" fill="#757575">2024-07-15</text>
  <rect x="300" y="260" width="90" height="28" rx="8" fill="#F44336"/>
  <text x="345" y="280" text-anchor="middle" font-size="14" font-family="Segoe UI, Arial, sans-serif" fill="#fff">Failed</text>
</svg> 